<svg xmlns="http://www.w3.org/2000/svg" width="256" height="256"><path fill="#1976D2" fill-opacity=".016" fill-rule="evenodd" d="M0 128.004v128.004l128.25-.254 128.25-.254.254-127.75L257.008 0H0zm.485.496c0 70.4.119 99.053.265 63.672s.146-92.98 0-128S.485 58.1.485 128.5"/><path fill="#1976D2" fill-opacity=".35" fill-rule="evenodd" d="M0 128.004v128.004l128.25-.254 128.25-.254.254-127.75L257.008 0H0zm.485.496c0 70.4.119 99.053.265 63.672s.146-92.98 0-128S.485 58.1.485 128.5m48.515-1V152h4.5c2.475 0 4.5-.462 4.5-1.026 0-.588 1.259-.374 2.95.5 3.98 2.058 7.901 1.915 11.746-.43 4.938-3.011 6.558-6.314 7.079-14.436.834-13.001-4.535-20.349-14.151-19.369-2.268.232-4.912.77-5.874 1.198-1.587.704-1.75.02-1.75-7.33V103h-9zm184.2-21.3c-3.392 3.392.419 8.614 5.378 7.37 2.828-.71 4.245-4.873 2.411-7.083-1.483-1.787-6.118-1.958-7.789-.287M156 113c0 3.6-.25 4-2.5 4-2.19 0-2.5.433-2.5 3.5 0 3.034.321 3.5 2.416 3.5 2.401 0 2.419.076 2.75 11.898.374 13.34 1.351 15.546 7.384 16.677 5.3.995 7.45-.182 7.45-4.076 0-2.929-.357-3.407-2.75-3.683l-2.75-.316-.285-10.25-.285-10.25h3.035c2.802 0 3.035-.269 3.035-3.5 0-3.222-.238-3.5-3-3.5-2.833 0-3-.222-3-4v-4h-9zm-134.622 5.437C17.912 119.946 15 123.5 15 126.223c0 2.706 8.053 2.523 9.768-.223 2.297-3.678 9.232-2.099 9.232 2.102 0 1.336-1.29 1.851-5.997 2.398-3.524.409-7.339 1.597-9.25 2.882-7.345 4.935-5.605 15.613 3.03 18.598 3.832 1.325 4.752 1.312 8.75-.126 2.457-.883 4.467-1.212 4.467-.73s1.929.876 4.287.876h4.287l-.41-13.25c-.226-7.287-.794-14.262-1.262-15.5-2.07-5.464-13.089-8.049-20.524-4.813m69.814.587c-5.989 3.652-9.12 15.742-6.128 23.661 3.786 10.021 17.626 13.413 26.017 6.376l3.419-2.868-2.389-2.559-2.39-2.56-2.495 1.963c-3.75 2.95-9.557 2.629-12.153-.672-1.14-1.449-2.073-3.009-2.073-3.466s4.838-.959 10.75-1.115l10.75-.284-.217-5.235c-.267-6.456-2.391-10.75-6.582-13.305-4.324-2.638-12.128-2.607-16.509.064M119 134.5V152h8.94l.28-12.713c.277-12.597.304-12.728 2.937-14.203 2.136-1.198 3.165-1.258 5.25-.308l2.593 1.181V152h9v-13.032C148 120.7 146.166 117 137.113 117c-2.21 0-5.242.557-6.737 1.238-2.16.985-2.802.985-3.13 0-.234-.703-2.105-1.238-4.329-1.238H119zm62.452-16.094c-3.2 1.394-6.452 5.455-6.452 8.059 0 2.484 8.169 2.095 9.768-.465 2.291-3.668 9.232-2.101 9.232 2.085 0 1.301-1.309 1.848-5.749 2.403-7.203.9-10.794 2.727-12.734 6.479-2.027 3.921-1.906 6.883.439 10.729 2.801 4.593 8.732 6.26 14.671 4.124 2.405-.865 4.373-1.178 4.373-.696s1.929.876 4.287.876h4.287l-.41-13.25c-.226-7.287-.794-14.262-1.262-15.5-2.06-5.439-13.087-8.051-20.45-4.844M210 134.5V152h8v-11.5c0-13.228 1.099-15.5 7.5-15.5 3.417 0 3.5-.095 3.5-4 0-3.965-.033-4-3.8-4-2.09 0-4.396.563-5.125 1.25-1.06 1-1.417 1-1.783 0-.26-.709-2.153-1.25-4.375-1.25H210zm22 0V152h9v-35h-9zM60 126c-1.61 1.61-2 3.333-2 8.845C58 142.68 59.547 145 64.772 145c4.345 0 6.228-3.051 6.228-10.088 0-9.293-5.866-14.046-11-8.912m35.073.635c-1.14 1.449-2.073 3.024-2.073 3.5s2.925.865 6.5.865 6.5-.255 6.5-.566c0-1.089-2.31-4.941-3.4-5.669-2.246-1.499-5.516-.687-7.527 1.87m-67.978 10.22c-5.38 1.545-5.23 7.305.206 7.957 4.342.52 6.862-1.466 6.507-5.128-.331-3.419-2.086-4.159-6.713-2.829m159.701.292c-5.101 1.866-4.421 7.853.892 7.853 4.311 0 6.312-1.755 6.312-5.535 0-2.95-.334-3.453-2.25-3.386-1.238.043-3.467.524-4.954 1.068"/><path fill="#1976D2" fill-opacity=".319" fill-rule="evenodd" d="M0 128.004v128.004l128.25-.254 128.25-.254.254-127.75L257.008 0H0zm.485.496c0 70.4.119 99.053.265 63.672s.146-92.98 0-128S.485 58.1.485 128.5M49 128v25h4.417c2.429 0 4.588-.515 4.797-1.143.286-.858.915-.858 2.518 0 3.519 1.883 9.639 1.366 13.37-1.13 6.31-4.221 8.721-18.401 4.506-26.502-3.419-6.571-10.207-9.606-16.543-7.397L59 117.896V103H49zm184-22c-2.408 2.408-2.447 2.917-.443 5.777 1.715 2.449 6.254 3.012 8.243 1.023 1.901-1.901 1.458-6.592-.734-7.765-2.871-1.536-4.833-1.268-7.066.965m-77 7c0 3.795-.157 4-3.06 4-2.925 0-3.047.166-2.75 3.75.269 3.256.672 3.792 3.06 4.066l2.75.317v11.479c0 10.919.122 11.601 2.507 13.985 2.145 2.146 3.262 2.464 7.75 2.205l5.243-.302v-4c0-3.775-.155-3.982-2.75-3.678l-2.75.321v-20.01l2.75-.317c2.388-.274 2.791-.81 3.06-4.066.297-3.584.175-3.75-2.75-3.75-2.903 0-3.06-.205-3.06-4v-4h-10zm-133.5 4.412c-3.862 1.716-7.17 5.355-8.034 8.838-.678 2.73-.646 2.75 4.426 2.75 3.819 0 5.108-.37 5.108-1.465 0-.805.87-1.93 1.934-2.5 3.665-1.961 6.342-.992 7.499 2.715.657 2.106.412 2.25-3.845 2.25-5.761 0-12.013 2.473-14.029 5.55-.857 1.309-1.559 4.374-1.559 6.811 0 3.821.487 4.859 3.535 7.535 2.841 2.495 4.424 3.104 8.066 3.104 2.492 0 5.492-.515 6.667-1.143 1.603-.858 2.232-.858 2.518 0 .214.644 2.46 1.143 5.147 1.143H44.7l-.366-7.75c-.201-4.262-.517-10.702-.703-14.311-.406-7.911-2.299-11.189-7.711-13.354-4.775-1.911-9.377-1.97-13.42-.173m70.95-.005c-11.841 5.157-13.969 25.103-3.475 32.575 6.219 4.429 16.768 3.928 22.096-1.048l3.214-3.002-2.317-2.466c-2.803-2.984-3.438-3.028-6.695-.466-4.35 3.422-9.441 2.509-11.836-2.121L92.949 138H115v-4.684c0-6.991-3.333-13.109-8.394-15.407-4.818-2.189-8.925-2.345-13.156-.502m37.3.108c-1.556.877-2.75 1.101-2.75.517 0-.572-2.237-1.032-5.023-1.032h-5.023l.273 17.75.273 17.75 4.75.305 4.75.305v-12.484c0-13.819.698-15.626 6.036-15.626 4.237 0 4.964 2.342 4.964 15.989v12.121l4.75-.305 4.75-.305.307-10.5c.406-13.925-.34-18.446-3.66-22.162-3.311-3.705-10.02-4.787-14.397-2.323m52.712-.451c-3.846 1.118-8.322 5.737-8.684 8.962-.257 2.288.078 2.497 4.472 2.779 2.653.17 4.75-.13 4.75-.679 0-1.633 3.021-4.126 5-4.126 2.203 0 5 2.557 5 4.571 0 1.035-1.291 1.429-4.684 1.429-13.26 0-20.162 11.354-11.916 19.6 2.895 2.895 4.093 3.4 8.066 3.4 2.566 0 5.627-.515 6.802-1.143 1.603-.858 2.232-.858 2.518 0 .215.645 2.464 1.143 5.164 1.143h4.783l-.351-6.75c-.193-3.713-.509-10.141-.702-14.285-.419-8.96-2.127-12.127-7.76-14.38-4.332-1.734-7.791-1.878-12.458-.521m39.272-.464c-.381.38-3.626.61-7.213.512l-6.521-.18V153h10v-12.3c0-8.233.397-12.697 1.2-13.5.66-.66 2.935-1.2 5.055-1.2h3.855l-.305-4.75c-.273-4.245-.575-4.781-2.842-5.046-1.396-.163-2.849.015-3.229.396M232 135.055v18.055l4.75-.305 4.75-.305.273-17.75.273-17.75H232zM60.2 126.2c-.709.709-1.2 4.121-1.2 8.345 0 5.652.382 7.491 1.829 8.8 6.352 5.749 12.845-5.009 8.827-14.625-1.355-3.244-1.983-3.72-4.905-3.72-1.843 0-3.891.54-4.551 1.2m34.835.734C93.453 129.891 93.611 130 99.5 130c3.846 0 5.5-.391 5.5-1.3 0-3.859-8.078-5.29-9.965-1.766m-69.439 11.372c-2.551 1.865-1.764 6.099 1.212 6.521 3.344.474 7.192-2.388 7.192-5.35 0-2.137-.454-2.477-3.309-2.477-1.82 0-4.112.588-5.095 1.306m160 0c-2.551 1.865-1.764 6.099 1.212 6.521 3.344.474 7.192-2.388 7.192-5.35 0-2.137-.454-2.477-3.309-2.477-1.82 0-4.112.588-5.095 1.306"/><path fill="#1976D2" fill-opacity=".109" fill-rule="evenodd" d="M155.572 5.75c-1.686 16.954-2.895 24.702-5.264 33.75-6.728 25.69-19.188 48.109-37.022 66.609l-8.343 8.655-5.987.433c-3.292.238-6.542.994-7.221 1.681-.986.996-.668 1.034 1.58.185 7.07-2.669 15.536-.273 19.293 5.461.944 1.44 2.294 5.849 3.001 9.798 1.342 7.492 1.852 20.472.761 19.382-.346-.347-.567-3.459-.491-6.917l.138-6.287-11.008.312c-6.055.172-11.009.665-11.009 1.095 0 1.054 3.084 3.641 5.259 4.413 2.217.787 6.845-.888 8.508-3.079 1.15-1.515 1.56-1.376 4.451 1.516l3.185 3.185-2.451 2.772-2.452 2.772 2.5-1.986 2.5-1.986-2.424 2.743c-2.421 2.738-3.745 3.635-2.576 1.743.826-1.337.4-1.274-4.092.603-2.647 1.106-5.088 1.39-7.872.916-2.22-.378-5.161-.801-6.536-.941s-2.344-.593-2.152-1.009-.793-1.951-2.187-3.412c-3.357-3.52-4.661-7.228-4.661-13.254 0-5.542 1.981-11.108 5.298-14.882l2.202-2.507-2.391 1.993c-1.315 1.096-3.168 3.707-4.116 5.801l-1.725 3.809-2.384-4.807c-3.367-6.789-7.901-9.607-14.592-9.07l-5.208.418-.346-6.579-.346-6.579-.196 7.785c-.187 7.415-.104 7.736 1.738 6.75 3.114-1.666 9.303-1.188 12.884.995 5.181 3.159 7.57 9.609 6.812 18.387-.844 9.763-1.128 11.426-2.103 12.313-.466.423-.462.095.009-.73s-.798-.06-2.819 1.701c-4.611 4.017-9.19 4.964-14.092 2.916-2.035-.85-3.431-1.112-3.103-.581.355.575-1.648.964-4.963.964H48l-.209-10.25-.21-10.25-.329 9.944c-.181 5.469-.817 10.532-1.413 11.25-.672.81-3.032 1.244-6.211 1.143l-5.128-.163 5.5-.587 5.5-.587-.357-14c-.197-7.7-.687-14.603-1.09-15.339s-.59 1.063-.416 4c.174 2.936.491 9.755.704 15.153l.387 9.813-6.614-.187c-3.638-.103-8.21.137-10.162.534-7.933 1.615-15.529-5.121-14.573-12.922.321-2.617.175-3.46-.432-2.5-2.684 4.241.952 12.08 7.073 15.25 3.333 1.726 7.464 1.82 12.48.282 1.1-.337.437.111-1.474.996-2.372 1.098-4.594 1.387-7 .909-4.381-.869-5.548-.919-15.776-.681L0 155v101h127.941c83.481 0 128.154-.345 128.554-.991.337-.546.291-58.146-.101-128L255.68 0h-99.536zm76.964 100.21c-3.573 3.948.682 9.955 6.091 8.597 1.343-.336 2.94-1.706 3.549-3.044 2.561-5.621-5.418-10.218-9.64-5.553M155 112c0 3.6-.25 4-2.5 4-2.296 0-2.5.367-2.5 4.5 0 4.091.22 4.5 2.414 4.5 2.391 0 2.417.108 2.75 11.398.286 9.701.634 11.728 2.336 13.615 2.783 3.084 6.255 4.204 10.705 3.452 3.723-.629 3.795-.724 3.795-5.053 0-4.236-.12-4.412-3-4.412h-3v-19h3.057c2.979 0 3.05-.11 2.75-4.25-.282-3.907-.529-4.247-3.057-4.211-2.579.037-2.75-.227-2.75-4.25V108h-11zm-21.187 2.683c.721.289 1.584.253 1.916-.079s-.258-.568-1.312-.525c-1.165.048-1.402.285-.604.604m4 0c.721.289 1.584.253 1.916-.079s-.258-.568-1.312-.525c-1.165.048-1.402.285-.604.604m-114.648 1.194c-.781.495.879.663 4 .405 7.328-.605 8.323-1.112 2.335-1.188-2.75-.035-5.601.317-6.335.783m84.845 1.373q6.69 4.554 8.022 11.435c.564 2.915.725 1.927.685-4.185-.029-4.4-.225-6.394-.435-4.431l-.381 3.569-4.319-4.319c-2.375-2.376-4.895-4.319-5.598-4.319s.208 1.013 2.026 2.25m21.499-1.265c-.359.581.133.758 1.189.428 1.533-.48 1.512-.38-.145.671-1.452.922-2.045.941-2.333.076-.223-.67-2.463-1.16-5.303-1.16H118v37h11v-12.878c0-14.132.534-15.535 5.69-14.944l2.81.322.278 13.75.278 13.75h11.023l-.177-18.087c-.097-9.948-.523-17.526-.947-16.841-.423.686-.515 1.962-.203 2.837s.378 1.366.147 1.091a317 317 0 0 1-2.41-2.983c-1.987-2.48-1.987-2.481.011-1.048 1.452 1.041 1.672 1.065.805.088-.658-.741-3.583-1.513-6.5-1.716-2.918-.203-6.29-.589-7.494-.859-1.204-.269-2.464-.043-2.802.503M36.5 117.167c1.1.608 2.922 1.832 4.048 2.72 1.127.887.782.376-.766-1.137-1.547-1.513-3.369-2.736-4.048-2.72s-.334.529.766 1.137m144.621.543c-3.528 1.738-7.111 6.54-7.117 9.54-.003 1.45.918 1.75 5.379 1.75 4.603 0 5.462-.3 5.925-2.069.802-3.069 7.056-2.387 7.512.819.293 2.066-.075 2.25-4.5 2.252-10.09.003-16.826 7.029-14.424 15.045 2.028 6.768 10.852 10.722 17.04 7.635 1.724-.86 3.293-1.121 3.614-.601.312.505 2.692.919 5.288.919h4.719l-.375-13.75c-.207-7.562-.895-14.858-1.529-16.213-.634-1.354-2.682-3.492-4.551-4.75-4.144-2.789-11.951-3.055-16.981-.577M209 134.5V153h10v-12.465c0-13.767.361-14.535 6.829-14.535 2.716 0 2.992-.325 3.337-3.938.206-2.166.216-4.416.021-5-.448-1.344-5.72-1.382-8.192-.059-1.252.67-2.079.67-2.493 0-.341-.552-2.618-1.003-5.061-1.003H209zm23-.055V153h10.045l-.272-18.25-.273-18.25-4.75-.305-4.75-.305zM16.405 120.25 14.5 122.5l2.25-1.905c1.238-1.048 2.25-2.06 2.25-2.25 0-.8-.805-.209-2.595 1.905M13.336 127c.134 2.039.754 2.557 3.363 2.81l3.199.309-3.199 3.054-3.199 3.054 3.327-2.614c1.83-1.437 4.53-2.878 6-3.201 4.949-1.087 4.698-1.254-2.007-1.333-6.088-.072-6.724-.279-7.164-2.329-.426-1.983-.464-1.953-.32.25m12.328-1.265c-.288.466.983.671 2.824.456 2.761-.322 3.428-.02 3.812 1.725.428 1.939.455 1.927.333-.151-.104-1.775-.816-2.331-3.289-2.571-1.736-.169-3.392.075-3.68.541m34.907.836c-1.932 1.933-2.217 14.383-.371 16.229.66.66 2.669 1.2 4.465 1.2 4.274 0 5.535-2.43 5.073-9.776l-.36-5.724-.189 6.309c-.104 3.47-.527 6.114-.939 5.875s-1.65-.031-2.75.462c-1.841.824-1.822.861.25.468 1.237-.235 2.25.008 2.25.54s-1.687.827-3.75.656l-3.75-.31-.298-6.84c-.182-4.182.157-7.388.873-8.25 1.449-1.746 5.055-1.829 6.927-.16 1.192 1.063 1.204.989.077-.5-1.645-2.175-5.421-2.265-7.508-.179m35.548-.214c-.921 1.109-.302 1.357 3.377 1.357 4.522 0 5.873-.975 2.922-2.107-2.59-.994-5.1-.695-6.299.75m2.15.336c.973.254 2.323.237 3-.037s-.119-.481-1.769-.461-2.204.244-1.231.498m33.731-.31c0 .211 1.111.596 2.47.856 1.358.26 2.232.087 1.941-.383-.512-.829-4.411-1.246-4.411-.473m-35.232 3.342c1.797.222 4.497.218 6-.01 1.503-.229.032-.411-3.268-.405s-4.529.192-2.732.415m-66.518 7.964c.962.252 1.75 1.302 1.75 2.335s-.788 2.335-1.75 2.896c-1.949 1.135-1.272 1.409 1.168.473.938-.36 1.582-1.784 1.582-3.5 0-2.368-.408-2.872-2.25-2.777-1.693.087-1.817.229-.5.573m155.93.368c-1.609.645-2.222 1.591-2 3.085.459 3.086 2.783 4.219 6.07 2.961 2.162-.828 2.75-1.7 2.75-4.078 0-2.489-.399-3.014-2.25-2.962-1.238.035-3.294.482-4.57.994m-161.513.61c-.951.951-.825 4.117.189 4.744.47.291.651-.541.401-1.849-.327-1.71.064-2.511 1.394-2.854 1.374-.354 1.442-.506.266-.592-.871-.064-1.884.184-2.25.551M96 141.5c.685.825 1.752 1.493 2.372 1.485.632-.009.507-.409-.284-.91-1.093-.691-.867-.996 1-1.348 1.876-.354 1.663-.485-.96-.591-2.892-.117-3.195.078-2.128 1.364m15-1.122c0 .207.787.995 1.75 1.75 1.586 1.243 1.621 1.208.378-.378-1.307-1.666-2.128-2.195-2.128-1.372m-29.387 1.439c-.404.654.474 2.363 2.013 3.921 1.501 1.519 2.217 2.063 1.592 1.208-.626-.854-1.531-2.619-2.013-3.921-.564-1.526-1.13-1.955-1.592-1.208M73.5 152.526c-2.2 1.355-3.603 2.466-3.118 2.469 1.024.006 7.618-3.955 7.618-4.577 0-.634-.198-.542-4.5 2.108M60 154c.825.533 1.95.969 2.5.969s.325-.436-.5-.969-1.95-.969-2.5-.969-.325.436.5.969m-8.736.718c1.52.229 3.77.223 5-.014s-.014-.425-2.764-.418-3.756.202-2.236.432M.464 205.5c0 28.05.128 39.669.285 25.82s.157-36.799 0-51c-.156-14.201-.284-2.87-.285 25.18m64.805-49.807c.973.254 2.323.237 3-.037s-.119-.481-1.769-.461-2.204.244-1.231.498"/></svg>